<svg xmlns="http://www.w3.org/2000/svg" viewBox="0 0 24 24">
  <defs>
    <style>
      .bbe68a0b-6850-48dd-87f8-45ec2bbf632b {
        fill: #fff;
      }
    </style>
  </defs>
  <g id="e09ca393-3463-43d2-90e9-649aeb90459a" data-name="Layer 2">
    <g id="e82f95cc-d2c3-42ed-b4d4-2794306ccf06" data-name="Layer 1">
      <path class="bbe68a0b-6850-48dd-87f8-45ec2bbf632b" d="M12.75,24h-1.5l-.18,0a11.71,11.71,0,0,1-6.43-2.49A11.8,11.8,0,0,1,.18,14C.1,13.62.06,13.18,0,12.75v-1.5c0-.29.06-.57.1-.86A11.84,11.84,0,0,1,3.08,4,11.75,11.75,0,0,1,10,.18c.42-.07.86-.12,1.29-.18h1.5l.18,0A11.36,11.36,0,0,1,18,1.61a11.86,11.86,0,0,1,5.82,8.32c.08.44.12.88.18,1.32v1.5c0,.06,0,.12,0,.18A11.6,11.6,0,0,1,22,18.6a11.85,11.85,0,0,1-7.93,5.21C13.65,23.9,13.2,23.94,12.75,24Zm2.82-5.91h2.71v-.26c0-1.27,0-2.55,0-3.82a13,13,0,0,0-.05-1.4,2.92,2.92,0,0,0-2.64-2.83,2.71,2.71,0,0,0-2.75,1.12s-.07.08-.14.17V10H10v8.13h2.7v-.26c0-1.45,0-2.89,0-4.34a1.6,1.6,0,0,1,.51-1.22,1.33,1.33,0,0,1,2.25.64,3.65,3.65,0,0,1,.1.88c0,1.31,0,2.62,0,3.93ZM5.78,10v8.14H8.47V10ZM7.12,8.82A1.41,1.41,0,1,0,7.38,6a1.52,1.52,0,0,0-1.7.93A1.41,1.41,0,0,0,7.12,8.82Z"/>
    </g>
  </g>
</svg>
